<?xml version="1.0" standalone="no"?><!DOCTYPE svg PUBLIC "-//W3C//DTD SVG 1.1//EN" "http://www.w3.org/Graphics/SVG/1.1/DTD/svg11.dtd"><svg t="1545410033748" class="icon" style="" viewBox="0 0 1024 1024" version="1.1" xmlns="http://www.w3.org/2000/svg" p-id="3426" xmlns:xlink="http://www.w3.org/1999/xlink" width="200" height="200"><defs><style type="text/css"></style></defs><path d="M268.88 362.48Q285.8 76 564 91.44T871.12 400h-47.8q0-41.4-20-69.64t-85.48 0z" fill="#FB5957" p-id="3427"></path><path d="M882.16 409.8h-68.84V400c0-25.36-6.12-46.84-18.24-64-10.24-14.36-34.92-13.24-73.32 3.36l-1.56 0.68h-1.72L258.24 373.28l0.68-11.36c11.6-196.72 114.44-291.08 305.64-280.48 190.28 10.56 296.76 117.36 316.48 317.4z m-49.12-20H860c-10.52-89.52-40-158.96-87.16-206.52-49.16-49.32-119.6-76.88-209.36-81.88-176.72-9.8-269.72 72-283.76 250.28l435.72-31.4c47.4-20 79.72-18.8 96 4a123.04 123.04 0 0 1 21.6 65.52z" fill="#600000" p-id="3428"></path><path d="M850 422m-42 0a42 42 0 1 0 84 0 42 42 0 1 0-84 0Z" fill="#FFFFFF" p-id="3429"></path><path d="M850 474a52 52 0 1 1 52-52 52 52 0 0 1-52 52z m0-84a32 32 0 1 0 32 32 32 32 0 0 0-32-32z" fill="#600000" p-id="3430"></path><path d="M290 274m176 0l92 0q176 0 176 176l0 96q0 176-176 176l-92 0q-176 0-176-176l0-96q0-176 176-176Z" fill="#FAE9DC" p-id="3431"></path><path d="M558 732h-92A186.2 186.2 0 0 1 280 546v-96A186.2 186.2 0 0 1 466 264h92a186.2 186.2 0 0 1 186 186v96a186.2 186.2 0 0 1-186 186z m-92-448A166.2 166.2 0 0 0 300 450v96a166.2 166.2 0 0 0 166 166h92a166.2 166.2 0 0 0 166-166v-96A166.2 166.2 0 0 0 558 284z" fill="#600000" p-id="3432"></path><path d="M726.2 711.52l-1.6-5.32 3.68-4A165.32 165.32 0 0 0 770 592v-160A193.96 193.96 0 0 0 576 238h-128A193.96 193.96 0 0 0 254 432v160a165.2 165.2 0 0 0 43.12 111.6l3.2 3.52-0.72 4.88a116.84 116.84 0 0 0-1.2 16.76 114 114 0 0 0 114 114c2.52 0 5 0 7.48-0.24l8-0.52 2.24 7.76a98.04 98.04 0 0 0 188.4 0.24l2.08-7.24h7.76a102.08 102.08 0 0 0 97.8-131.04zM508.88 298.76l11-1.68a186.04 186.04 0 0 1 212 155.76 189.32 189.32 0 0 1 2.12 28V544a185.84 185.84 0 0 1-6 47.12l-4.56 17.56-12.4-13.28a72 72 0 0 0-109.44 4.96l-5.6 7.04-7.6-4.68a122.04 122.04 0 0 0-144.28 12l-3.76 3.28-4.84-1a114.6 114.6 0 0 0-23.16-2.36 116 116 0 0 0-14.96 0.96l-6 0.8-3.4-5.04a58.08 58.08 0 0 0-74.64-18.12l-11.44 6.08-2.96-12.64A187.52 187.52 0 0 1 294 544v-61.48a186 186 0 0 1 186-186 188.64 188.64 0 0 1 28.88 2.24z" fill="#FFFFFF" p-id="3433"></path><path d="M524.4 930.56a108.44 108.44 0 0 1-104-78.24c-2.68 0-5.4 0.24-8 0.24a124 124 0 0 1-124-124 126.36 126.36 0 0 1 1.32-18.24A175.52 175.52 0 0 1 244 592v-160a204.24 204.24 0 0 1 204-204h128a204.24 204.24 0 0 1 204 204v160a176 176 0 0 1-44 116.68 112 112 0 0 1-107.4 144H628a108.48 108.48 0 0 1-103.6 77.88z m-89.08-99.24l4.44 15.48a88 88 0 0 0 169.2 0.24l4-14.52h15.08a92 92 0 0 0 88.4-118.2l-3.16-10.64 7.36-8.32A155.72 155.72 0 0 0 760 592v-160a184.24 184.24 0 0 0-184-184h-128a184.24 184.24 0 0 0-184 184v160a155.68 155.68 0 0 0 40.52 104.88l6.36 7.12-1.36 9.36a104 104 0 0 0 102.88 119.32h6.84z m293.16-202.56l-24.8-26.52a62 62 0 0 0-94.24 4.24l-11 14.16-15.28-9.44a112 112 0 0 0-132.44 11l-7.48 6.52-9.72-2a105.88 105.88 0 0 0-34.8-1.28l-12 1.6-6.96-9.96a48 48 0 0 0-61.76-15l-22.88 12-5.92-25.2A197.36 197.36 0 0 1 284 544v-61.48a196.2 196.2 0 0 1 196-196 193.76 193.76 0 0 1 28.88 2.16l9.48-1.48a196.28 196.28 0 0 1 223.4 164 199.04 199.04 0 0 1 2.24 29.64V544a195.32 195.32 0 0 1-6.36 49.64z m-316-24.2a125.76 125.76 0 0 1 25.16 2.56 132 132 0 0 1 156-12.92 82 82 0 0 1 124.64-5.6A177.52 177.52 0 0 0 724 544v-63.04a174.04 174.04 0 0 0-2.04-26.6 176 176 0 0 0-200.56-147.36l-12.52 1.88-1.56-0.24a178.4 178.4 0 0 0-27.32-2.12 176.2 176.2 0 0 0-176 176V544a175.36 175.36 0 0 0 4.68 40.4A68 68 0 0 1 396 605.64a122.76 122.76 0 0 1 16.4-1.08z" fill="#600000" p-id="3434"></path><path d="M532.6 602.16l-1.2 7.08a17.2 17.2 0 0 1-16.92 14.24 17.04 17.04 0 0 1-16.6-13.32l-5.32-23.72a12.92 12.92 0 0 1 18.52-14.28l8.88 4.56a24 24 0 0 1 12.64 25.44z" fill="#C93E4F" p-id="3435"></path><path d="M515.36 544.2a17.48 17.48 0 0 1 15.48-3.6c9.24 2.64 52 17.8 89.44 17.8a638.56 638.56 0 0 0 67.28-4.88 8 8 0 0 1 8 11.72q-28.76 53.8-82.08 59.12-52 5.24-98.08-49.08-45.92 54.24-98.08 49.08-53.32-5.28-80.56-62.24a8 8 0 0 1-0.64-4.88 8 8 0 0 1 9.32-6.4 385.6 385.6 0 0 0 65 7.56c37.52 0 80-15.16 89.44-17.8a17.48 17.48 0 0 1 15.48 3.6z" fill="#FFFFFF" p-id="3436"></path><path d="M426.32 634.84c-3.32 0-6.64-0.2-10-0.52-39.12-4-68.92-26.72-88.56-68a17.96 17.96 0 0 1 19.48-25.44 377.12 377.12 0 0 0 63.2 7.4c31.28 0 66.44-11.08 81.44-15.8 2.24-0.72 4-1.28 5.24-1.6a25.36 25.36 0 0 1 18.24 1.64 25.36 25.36 0 0 1 18.24-1.64c1.24 0.32 3 0.88 5.24 1.6 15 4.72 50.16 15.8 81.44 15.8a628.68 628.68 0 0 0 66.16-4.84 18 18 0 0 1 13.24 4 17.8 17.8 0 0 1 6.64 12 17.4 17.4 0 0 1-2 10.48c-20.72 38.88-51 60.52-89.92 64.4-35.12 3.52-68.4-11.32-99.04-44-27.72 29.68-57.6 44.52-89.04 44.52z m-78.76-73.48c16.52 32.6 39.68 49.96 70.72 53.08s60.84-12 89.44-45.64l7.64-9 7.64 9c28.64 33.84 57.92 48.72 89.44 45.64s54.92-19.68 72.4-50.56a633.28 633.28 0 0 1-64.56 4.52c-34.36 0-71.56-11.72-87.44-16.72l-4.76-1.48c-0.8-0.24-2.8-0.84-6.88 2.12l-5.84 4-5.84-4c-4-2.92-6.08-2.36-6.84-2.12l-4.76 1.48c-16 5-53.12 16.72-87.48 16.72a380.24 380.24 0 0 1-62.88-7.04z" fill="#600000" p-id="3437"></path><path d="M496 498h32a34.04 34.04 0 0 1 34 34 34.04 34.04 0 0 1-34 34h-32a34.04 34.04 0 0 1-34-34 34.04 34.04 0 0 1 34-34z" fill="#C93E4F" p-id="3438"></path><path d="M528 576h-32a44 44 0 0 1 0-88h32a44 44 0 0 1 0 88z m-32-68a24 24 0 0 0 0 48h32a24 24 0 0 0 0-48z" fill="#600000" p-id="3439"></path><path d="M398.84 402.68l38.12-22a6 6 0 0 1 8.2 2.16 6 6 0 0 1-2.2 8.2l-38.12 22a5.92 5.92 0 0 1-8-2.2 5.96 5.96 0 0 1 2-8.16z" fill="#D8D8D8" p-id="3440"></path><path d="M401.88 424a16.28 16.28 0 0 1-4-0.56 16 16 0 0 1-4-29.32L432 372a16 16 0 0 1 16 27.72l-38.12 22a16 16 0 0 1-8 2.28z m2-12.56z" fill="#600000" p-id="3441"></path><path d="M614.96 394.68l-38.12-22a5.96 5.96 0 0 0-8 2.16 6 6 0 0 0 2.16 8.2l38.12 22a5.96 5.96 0 0 0 8-2.2 5.96 5.96 0 0 0-2.16-8.16z" fill="#D8D8D8" p-id="3442"></path><path d="M612 416a16 16 0 0 1-8-2.12l-38.12-22a16 16 0 0 1 4-29.32 16 16 0 0 1 12 1.6L620 386a16 16 0 0 1 5.84 21.88A16 16 0 0 1 612 416z" fill="#600000" p-id="3443"></path><path d="M448 465.4a8 8 0 0 1-3.68-15.08l14.72-7.68-14.68-7.52a8 8 0 1 1 7.28-14.24l21.56 11.12a12 12 0 0 1 0 21.32l-21.6 11.28a8 8 0 0 1-3.6 0.8z m17.92-19.24z" fill="#600000" p-id="3444"></path><path d="M564.44 465.4a8 8 0 0 1-3.68-0.88l-21.6-11.28a12 12 0 0 1-5.12-5.16 12 12 0 0 1 5.2-16l21.56-11.04a8 8 0 0 1 7.32 14.24l-14.68 7.52 14.72 7.68a8 8 0 0 1-3.72 15.08z" fill="#600000" p-id="3445"></path></svg>